<?xml version="1.0" standalone="no"?>
<!DOCTYPE svg PUBLIC "-//W3C//DTD SVG 20010904//EN"
 "http://www.w3.org/TR/2001/REC-SVG-20010904/DTD/svg10.dtd">
<svg version="1.0" xmlns="http://www.w3.org/2000/svg"
 width="200.000000pt" height="200.000000pt" viewBox="0 0 200.000000 200.000000"
 preserveAspectRatio="xMidYMid meet">
<metadata>
Created by potrace 1.11, written by Peter Selinger 2001-2013
</metadata>
<g transform="translate(0.000000,200.000000) scale(0.100000,-0.100000)"
fill="#000000" stroke="none">
<path d="M943 1561 c-23 -11 -62 -41 -87 -66 -49 -52 -60 -51 -82 1 -15 37
-41 45 -50 17 -3 -10 -10 -26 -15 -35 -12 -24 -11 -115 1 -123 18 -11 -5 -30
-52 -45 -24 -8 -47 -17 -53 -20 -33 -22 -44 -18 -55 18 -18 55 -70 139 -96
153 -13 6 -46 12 -75 12 -50 1 -54 -1 -99 -50 -56 -61 -84 -116 -76 -149 8
-32 74 -95 125 -119 22 -11 41 -24 41 -30 0 -5 -25 -37 -55 -70 -30 -33 -81
-94 -113 -135 -31 -41 -60 -76 -64 -78 -5 -2 -8 -8 -8 -13 0 -5 -8 -22 -17
-36 -31 -47 -43 -96 -43 -176 0 -104 29 -167 117 -253 l53 -52 -33 -12 c-56
-21 -76 -32 -81 -47 -5 -12 18 -132 26 -137 2 -1 383 0 848 3 558 3 828 8 795
14 -27 5 -354 10 -725 12 -566 2 -781 6 -867 14 -7 0 -20 17 -29 37 -17 35
-17 37 1 50 10 8 27 14 36 14 10 0 24 3 32 6 8 3 22 -2 30 -11 35 -34 95 -53
144 -44 58 11 109 43 128 80 l16 29 473 0 474 0 22 -34 c24 -40 91 -76 141
-76 45 0 121 39 134 68 14 32 56 29 94 -7 36 -34 38 -53 11 -104 -20 -36 -19
-57 0 -57 13 0 50 88 50 120 0 39 -32 74 -90 99 -62 27 -64 47 -14 105 82 95
98 133 99 227 0 70 -6 94 -38 154 -6 11 -20 38 -30 60 -11 22 -22 42 -26 45
-3 3 -14 20 -25 39 -32 57 -88 131 -149 194 l-58 60 47 46 c48 46 83 109 84
147 0 46 -58 93 -162 129 -57 20 -101 19 -120 -2 -9 -10 -28 -55 -42 -100 -15
-46 -31 -85 -35 -87 -13 -8 -93 16 -98 30 -3 7 9 28 26 46 17 18 31 41 31 52
0 17 -8 18 -112 13 -62 -2 -124 -8 -137 -12 -22 -7 -23 -6 -17 16 5 13 10 39
13 57 l5 32 -63 0 c-41 0 -79 -7 -106 -19z m97 -65 c-5 -15 -10 -41 -10 -57 0
-34 6 -35 100 -14 36 8 81 14 101 15 l36 0 -34 -66 c-37 -73 -42 -109 -16
-118 15 -6 21 -2 42 32 6 11 19 11 66 3 31 -6 71 -18 88 -26 16 -8 34 -15 38
-15 15 0 110 -62 104 -68 -3 -3 -15 0 -28 5 -78 39 -158 43 -219 12 -45 -23
-67 -21 -135 13 -35 17 -45 19 -58 8 -8 -7 -15 -16 -15 -21 0 -11 83 -59 103
-59 22 0 21 -12 -4 -57 -18 -32 -20 -50 -17 -132 3 -86 7 -104 39 -171 40 -83
57 -105 109 -141 26 -18 35 -31 36 -54 0 -16 4 -42 8 -56 7 -23 4 -27 -34 -39
-39 -13 -44 -12 -105 18 -79 40 -179 45 -233 12 -39 -24 -59 -25 -102 -4 -35
18 -134 14 -153 -5 -14 -14 -84 -14 -92 -1 -3 6 -20 10 -36 10 -23 0 -30 -4
-27 -17 8 -44 117 -68 174 -38 36 19 101 19 134 0 35 -20 81 -18 110 5 19 15
41 20 93 20 56 0 77 -5 125 -31 62 -33 92 -34 157 -3 22 10 48 15 70 11 67
-11 66 39 -2 58 -33 9 -38 15 -40 43 -3 31 -1 32 34 32 28 0 42 -6 58 -27 23
-27 45 -25 45 5 0 13 15 21 56 30 53 13 57 12 76 -8 25 -27 43 -21 43 15 -1
22 8 34 46 59 52 34 79 71 79 108 1 22 1 22 13 3 36 -61 47 -142 25 -192 -15
-35 -57 -100 -82 -130 -20 -24 -50 -30 -61 -13 -3 5 -37 10 -74 10 -63 0 -70
-2 -109 -36 -23 -19 -42 -42 -42 -50 0 -12 -71 -14 -476 -14 l-475 0 -49 50
-49 50 -69 0 c-65 0 -71 -2 -112 -37 l-43 -37 -39 44 c-64 72 -73 95 -73 190
0 73 4 92 28 138 15 28 29 52 31 52 3 0 2 -25 -1 -55 -6 -61 16 -136 47 -158
10 -7 19 -21 22 -32 3 -16 11 -19 41 -17 20 2 56 -3 79 -9 24 -7 68 -12 98
-10 30 1 61 -2 68 -7 9 -6 28 -3 52 9 22 11 45 19 53 19 21 0 100 56 123 87
45 61 69 151 69 258 -1 109 -9 135 -63 193 -26 28 -28 32 -11 32 24 0 55 17
92 49 53 48 20 80 -37 36 -45 -34 -100 -42 -150 -21 -49 21 -86 21 -86 1 0 -9
-8 -18 -17 -21 -10 -3 -35 -13 -56 -21 -20 -9 -39 -14 -42 -12 -8 9 165 111
222 131 52 18 60 18 89 5 51 -25 77 16 29 47 -42 28 -65 59 -65 89 l0 28 26
-20 c37 -29 59 -26 86 12 43 61 69 80 143 104 38 12 48 3 35 -31z m490 -647
c194 -13 220 -17 220 -40 0 -20 -34 -43 -53 -35 -7 2 -4 5 6 5 12 1 17 7 15
18 -3 15 -19 18 -118 20 -116 3 -310 20 -318 27 -2 3 -1 10 3 16 5 9 23 10 59
5 28 -4 112 -11 186 -16z m-765 -23 c0 -18 -60 -25 -246 -28 -169 -3 -189 -5
-189 -20 0 -9 8 -19 17 -21 12 -3 9 -5 -7 -6 -30 -1 -50 15 -50 40 0 14 15 18
88 24 276 24 387 27 387 11z"/>
</g>
</svg>
